<svg width="12" height="12" viewBox="0 0 12 12" fill="none" xmlns="http://www.w3.org/2000/svg">
<path d="M8.14289 10.7143C7.88575 10.7143 7.71432 10.5429 7.71432 10.2858V8.57148C7.71432 8.31434 7.88575 8.14291 8.14289 8.14291C8.40003 8.14291 8.57146 8.31434 8.57146 8.57148V9.00005H10.7143C10.9715 9.00005 11.1429 9.17148 11.1429 9.42862C11.1429 9.68577 10.9715 9.85719 10.7143 9.85719H8.57146V10.2858C8.57146 10.5429 8.40003 10.7143 8.14289 10.7143ZM6.42861 9.85719H1.28575C1.02861 9.85719 0.857178 9.68577 0.857178 9.42862C0.857178 9.17148 1.02861 9.00005 1.28575 9.00005H6.42861C6.68575 9.00005 6.85718 9.17148 6.85718 9.42862C6.85718 9.68577 6.68575 9.85719 6.42861 9.85719ZM3.85718 7.28577C3.60003 7.28577 3.42861 7.11434 3.42861 6.8572V6.42862H1.28575C1.02861 6.42862 0.857178 6.25719 0.857178 6.00005C0.857178 5.74291 1.02861 5.57148 1.28575 5.57148H3.42861V5.14291C3.42861 4.88577 3.60003 4.71434 3.85718 4.71434C4.11432 4.71434 4.28575 4.88577 4.28575 5.14291V6.8572C4.28575 7.11434 4.11432 7.28577 3.85718 7.28577ZM10.7143 6.42862H5.57146C5.31432 6.42862 5.14289 6.25719 5.14289 6.00005C5.14289 5.74291 5.31432 5.57148 5.57146 5.57148H10.7143C10.9715 5.57148 11.1429 5.74291 11.1429 6.00005C11.1429 6.25719 10.9715 6.42862 10.7143 6.42862ZM8.14289 3.8572C7.88575 3.8572 7.71432 3.68577 7.71432 3.42862V1.71434C7.71432 1.4572 7.88575 1.28577 8.14289 1.28577C8.40003 1.28577 8.57146 1.4572 8.57146 1.71434V2.14291H10.7143C10.9715 2.14291 11.1429 2.31434 11.1429 2.57148C11.1429 2.82862 10.9715 3.00005 10.7143 3.00005H8.57146V3.42862C8.57146 3.68577 8.40003 3.8572 8.14289 3.8572ZM6.42861 3.00005H1.28575C1.02861 3.00005 0.857178 2.82862 0.857178 2.57148C0.857178 2.31434 1.02861 2.14291 1.28575 2.14291H6.42861C6.68575 2.14291 6.85718 2.31434 6.85718 2.57148C6.85718 2.82862 6.68575 3.00005 6.42861 3.00005Z" fill="#64748B"/>
</svg>
